<svg width="7" height="13" viewBox="0 0 7 13" fill="none" xmlns="http://www.w3.org/2000/svg">
<g opacity="0.8">
<path d="M6.74154 0.176253L5.10071 0.173584C3.25729 0.173584 2.06599 1.41255 2.06599 3.33018V4.78558H0.416208C0.273647 4.78558 0.158203 4.90274 0.158203 5.04725V7.15597C0.158203 7.30048 0.273779 7.4175 0.416208 7.4175H2.06599V12.7385C2.06599 12.883 2.18143 13 2.324 13H4.47649C4.61905 13 4.7345 12.8828 4.7345 12.7385V7.4175H6.66348C6.80604 7.4175 6.92148 7.30048 6.92148 7.15597L6.92227 5.04725C6.92227 4.97787 6.89502 4.91142 6.84671 4.86231C6.7984 4.81321 6.73259 4.78558 6.66414 4.78558H4.7345V3.55182C4.7345 2.95882 4.8739 2.65779 5.63593 2.65779L6.74127 2.65739C6.8837 2.65739 6.99915 2.54023 6.99915 2.39585V0.43779C6.99915 0.293544 6.88383 0.17652 6.74154 0.176253Z" fill="white"/>
</g>
</svg>
