<svg width="13" height="13" viewBox="0 0 13 13" fill="none" xmlns="http://www.w3.org/2000/svg">
<g opacity="0.8">
<path d="M8.64304 0.173584H3.92865C1.75925 0.173584 0 1.95692 0 4.15602V8.93494C0 11.134 1.75925 12.9174 3.92865 12.9174H8.64304C10.8124 12.9174 12.5717 11.134 12.5717 8.93494V4.15602C12.5717 1.95692 10.8124 0.173584 8.64304 0.173584ZM11.3931 8.93494C11.3931 10.4722 10.1595 11.7226 8.64304 11.7226H3.92865C2.41219 11.7226 1.1786 10.4722 1.1786 8.93494V4.15602C1.1786 2.6188 2.41219 1.36831 3.92865 1.36831H8.64304C10.1595 1.36831 11.3931 2.6188 11.3931 4.15602V8.93494Z" fill="white"/>
<path d="M6.2855 3.35867C4.54982 3.35867 3.14258 4.78557 3.14258 6.54548C3.14258 8.3054 4.54982 9.73229 6.2855 9.73229C8.02118 9.73229 9.42842 8.3054 9.42842 6.54548C9.42842 4.78557 8.02118 3.35867 6.2855 3.35867ZM6.2855 8.53724C5.20276 8.53724 4.32117 7.64334 4.32117 6.54548C4.32117 5.44683 5.20276 4.55373 6.2855 4.55373C7.36824 4.55373 8.24983 5.44683 8.24983 6.54548C8.24983 7.64334 7.36824 8.53724 6.2855 8.53724Z" fill="white"/>
<path d="M9.6649 3.54555C9.89619 3.54555 10.0837 3.35543 10.0837 3.12092C10.0837 2.8864 9.89619 2.69629 9.6649 2.69629C9.4336 2.69629 9.24609 2.8864 9.24609 3.12092C9.24609 3.35543 9.4336 3.54555 9.6649 3.54555Z" fill="white"/>
</g>
</svg>
