<svg width="16" height="13" viewBox="0 0 16 13" fill="none" xmlns="http://www.w3.org/2000/svg">
<g opacity="0.8">
<path d="M15.6205 1.4968C15.5987 1.47073 15.5626 1.46188 15.5319 1.4761C15.077 1.68072 14.5983 1.82782 14.1053 1.91473C14.6287 1.5156 15.0187 0.962893 15.2187 0.329128C15.2283 0.298791 15.2183 0.265609 15.1939 0.245858C15.1692 0.226108 15.1351 0.223579 15.1081 0.239854C14.5187 0.594263 13.8802 0.844072 13.2097 0.982644C12.6155 0.357569 11.7859 0 10.9272 0C9.18088 0 7.76032 1.44007 7.76032 3.21022C7.76032 3.42432 7.78073 3.63637 7.82126 3.84225C5.40253 3.69088 3.14092 2.51373 1.60315 0.60169C1.58741 0.582097 1.56356 0.571194 1.53862 0.573722C1.51384 0.575618 1.4917 0.589839 1.47923 0.611486C1.19868 1.09941 1.05045 1.65765 1.05045 2.22552C1.05045 3.20975 1.49155 4.12998 2.24267 4.7372C1.85596 4.69011 1.4783 4.56671 1.13773 4.37505C1.11482 4.36193 1.0863 4.36209 1.06338 4.37552C1.04047 4.38879 1.02598 4.41344 1.02535 4.4403L1.02504 4.48139C1.02504 5.89491 1.94387 7.13606 3.25112 7.54814C2.90681 7.60439 2.54957 7.6006 2.1984 7.53265C2.17253 7.52776 2.14541 7.53676 2.12764 7.55699C2.11002 7.57721 2.1041 7.60549 2.11221 7.63109C2.50421 8.87144 3.5934 9.74127 4.86121 9.84966C3.80366 10.6351 2.55362 11.0489 1.23281 11.0489C0.989505 11.0489 0.744483 11.0342 0.50445 11.0056C0.47016 11.0017 0.436181 11.0224 0.424335 11.0557C0.412489 11.0894 0.425114 11.127 0.454729 11.1461C1.88402 12.0753 3.53666 12.5663 5.2342 12.5663C10.7869 12.5663 14.105 7.99388 14.105 3.57348C14.105 3.45039 14.1027 3.32794 14.0978 3.2058C14.6968 2.76164 15.211 2.21794 15.6256 1.5886C15.6442 1.56047 15.6421 1.52303 15.6205 1.4968Z" fill="white"/>
</g>
</svg>
